<svg version="1.2" baseProfile="tiny-ps" xmlns="http://www.w3.org/2000/svg" viewBox="0 0 15 17" width="15" height="17">
	<title>Фигура 3</title>
	<style>
		tspan { white-space:pre }
		.s0 { fill: #ffffff } 
	</style>
	<path id="Фигура 3" class="s0" d="m4.27 11.2c-0.34 0-0.66-0.1-0.94-0.27v1.28c0 0.54 0.42 0.99 0.94 0.99h8.46c1 0 1.81 0.86 1.81 1.91c0 1.05-0.81 1.91-1.81 1.91c-1 0-1.81-0.85-1.81-1.91c0-0.35 0.09-0.68 0.25-0.96h-4.03c0.16 0.28 0.25 0.61 0.25 0.96c0 1.05-0.81 1.91-1.81 1.91c-1 0-1.81-0.85-1.81-1.91c0-0.36 0.1-0.69 0.26-0.98c-0.9-0.12-1.6-0.93-1.6-1.91v-10.35l-2.17-0.97c-0.23-0.1-0.33-0.38-0.24-0.62c0.1-0.24 0.36-0.35 0.59-0.25l2.45 1.08c0.01 0.01 0.03 0.01 0.04 0.02c0 0 0.01 0 0.01 0.01c0.01 0 0.02 0.01 0.03 0.02c0.01 0.01 0.01 0.01 0.02 0.02c0 0 0.01 0.01 0.01 0.01c0.01 0.01 0.02 0.01 0.02 0.02l0.01 0.01l0.03 0.03c0 0.01 0.01 0.01 0.01 0.02c0 0.01 0.01 0.01 0.01 0.02c0 0.01 0.01 0.01 0.01 0.02c0.01 0.01 0.01 0.01 0.01 0.02c0 0 0 0.01 0.01 0.01c0.01 0.01 0.01 0.02 0.01 0.03c0 0 0 0.01 0 0.01l0.01 0.03c0 0.01 0 0.01 0 0.02c0 0.01 0 0.02 0.01 0.03c0 0.01 0 0.02 0 0.03c0 0.01 0 0.01 0 0.01c0 0.01 0 0.03 0 0.05v1.66l11.27 1.64c0.01 0 0.01 0 0.01 0c0.01 0 0.02 0 0.03 0c0 0 0.01 0 0.02 0c0.01 0 0.02 0 0.02 0.01c0.01 0 0.01 0 0.02 0.01l0.02 0.01l0.04 0.02c0.01 0.01 0.01 0.01 0.02 0.01c0.01 0 0.01 0.01 0.02 0.01c0.01 0 0.01 0.01 0.02 0.01c0.01 0 0.01 0.01 0.02 0.01l0.02 0.02c0 0 0.01 0.01 0.01 0.01c0 0.01 0.01 0.01 0.01 0.02c0 0.01 0.01 0.01 0.01 0.02c0.01 0.01 0.01 0.01 0.01 0.02c0 0.01 0.01 0.01 0.01 0.02c0 0.01 0.01 0.01 0.01 0.02l0.01 0.02c0 0 0.01 0.01 0.01 0.02c0 0.01 0.01 0.02 0.01 0.02c0 0.01 0 0.01 0.01 0.02c0 0.01 0 0.01 0.01 0.02c0 0.01 0 0.02 0.01 0.02c0 0.01 0 0.01 0 0.02c0 0.01 0 0.02 0 0.02c0 0.01 0 0.01 0 0.02v3.99c0 1.06-0.82 1.93-1.83 1.93h-8.89v0zm8.89-0.94" />
</svg>