<svg version="1.2" baseProfile="tiny-ps" xmlns="http://www.w3.org/2000/svg" viewBox="0 0 18 20" width="18" height="20">
	<title>Фигура 3 копия 5</title>
	<style>
		tspan { white-space:pre }
		.s0 { fill: #2c71b8 } 
	</style>
	<path id="Фигура 3 копия 5" class="s0" d="m5.21 13.17c-0.4 0-0.78-0.12-1.1-0.31v1.51c0 0.64 0.49 1.16 1.1 1.16h9.95c1.17 0 2.13 1.01 2.13 2.24c0 1.24-0.96 2.24-2.13 2.24c-1.17 0-2.13-1-2.13-2.24c0-0.41 0.11-0.8 0.29-1.13h-4.74c0.19 0.33 0.29 0.72 0.29 1.13c0 1.24-0.96 2.24-2.13 2.24c-1.17 0-2.13-1-2.13-2.24c0-0.42 0.11-0.82 0.3-1.15c-1.06-0.14-1.88-1.1-1.88-2.25v-12.18l-2.55-1.14c-0.27-0.12-0.39-0.44-0.28-0.73c0.11-0.28 0.42-0.42 0.69-0.3l2.88 1.28c0.02 0.01 0.04 0.02 0.05 0.02c0 0 0.01 0 0.01 0.01c0.01 0 0.02 0.01 0.03 0.02c0.01 0.01 0.02 0.01 0.02 0.02c0 0 0.01 0.01 0.02 0.01c0.01 0.01 0.02 0.02 0.03 0.02l0.01 0.01l0.04 0.04c0 0.01 0.01 0.02 0.02 0.02c0 0.01 0.01 0.01 0.01 0.02c0 0.01 0.01 0.01 0.01 0.02c0.01 0.01 0.01 0.02 0.02 0.02c0 0 0 0.01 0.01 0.02c0.01 0.01 0.01 0.02 0.02 0.03c0 0 0 0.01 0 0.02l0.01 0.04c0 0.01 0 0.01 0 0.02c0 0.01 0 0.02 0.01 0.03c0 0.01 0 0.02 0 0.04c0 0.01 0 0.01 0 0.02c0 0.02 0 0.04 0 0.06v1.95l13.26 1.93c0.01 0 0.01 0 0.02 0c0.01 0 0.02 0 0.03 0c0 0 0.01 0 0.02 0c0.01 0 0.02 0 0.03 0.01c0.01 0 0.02 0 0.02 0.01l0.02 0.01l0.05 0.02c0.01 0.01 0.02 0.01 0.02 0.02c0.01 0 0.01 0.01 0.02 0.01c0.01 0 0.02 0.01 0.02 0.02c0.01 0 0.01 0.01 0.02 0.02l0.02 0.02c0 0 0.01 0.01 0.02 0.02c0 0.01 0.01 0.01 0.02 0.02c0 0.01 0.01 0.01 0.02 0.02c0.01 0.01 0.01 0.01 0.02 0.02c0 0.01 0.01 0.02 0.02 0.02c0 0.01 0.01 0.01 0.01 0.02l0.01 0.02c0 0 0.01 0.01 0.01 0.02c0 0.01 0.01 0.02 0.01 0.03c0 0.01 0 0.02 0.01 0.02c0 0.01 0 0.02 0.01 0.02c0 0.01 0 0.02 0.01 0.03c0 0.01 0 0.02 0 0.02c0 0.01 0 0.02 0 0.03c0 0.01 0 0.02 0 0.02v4.69c0 1.25-0.97 2.27-2.15 2.27h-10.46v0zm10.46-1.11" />
</svg>