<svg version="1.2" baseProfile="tiny-ps" xmlns="http://www.w3.org/2000/svg" viewBox="0 0 14 12" width="14" height="12">
	<title>Фигура 1 копия</title>
	<style>
		tspan { white-space:pre }
		.s0 { fill: #ffffff } 
	</style>
	<path id="Фигура 1 копия" class="s0" d="m13.76 11.38c-0.44 0.64-1.3 0.8-1.93 0.36l-2.48-1.85c-0.4-0.28-0.61-0.75-0.6-1.21c-0.74 0.8-1.7 1.35-2.78 1.55c-1.33 0.25-2.67-0.05-3.78-0.83c-1.11-0.78-1.85-1.96-2.09-3.31c-0.24-1.36 0.05-2.73 0.81-3.86c1.58-2.34 4.74-2.92 7.03-1.31c2.08 1.47 2.74 4.26 1.66 6.51c0.42-0.18 0.92-0.15 1.33 0.14l2.48 1.85c0.63 0.45 0.79 1.33 0.35 1.97zm-5.23-6.87c-0.17-0.95-0.69-1.77-1.46-2.31c-1.6-1.13-3.8-0.72-4.9 0.91c-1.1 1.63-0.7 3.87 0.89 5c1.6 1.13 3.8 0.72 4.9-0.91c0.54-0.79 0.74-1.74 0.57-2.69z" />
</svg>